<mxfile host="Electron" modified="2023-10-13T00:36:26.734Z" agent="Mozilla/5.0 (X11; Linux x86_64) AppleWebKit/537.36 (KHTML, like Gecko) draw.io/22.0.2 Chrome/114.0.5735.289 Electron/25.8.4 Safari/537.36" etag="xOWlJowG2IerWU8Rcvrc" version="22.0.2" type="device">
  <diagram name="System Mode State Diagram" id="fo18u6Ch1KVScq3Fo-Wy">
    <mxGraphModel dx="1103" dy="1261" grid="1" gridSize="10" guides="1" tooltips="1" connect="1" arrows="1" fold="1" page="1" pageScale="1" pageWidth="800" pageHeight="350" background="#999999" math="0" shadow="0">
      <root>
        <object label="" description="State diagram for sensor node system modes." rev="1.0" id="0">
          <mxCell />
        </object>
        <object label="Title Block" id="1">
          <mxCell style="locked=1;" parent="0" />
        </object>
        <mxCell id="h7L3MlKvrl_dhOmhB3lf-10" value="Prepared with: draw.io v22.0.0" style="strokeWidth=1;shadow=0;dashed=0;align=center;html=1;shape=mxgraph.mockup.text.textBox;fontColor=#666666;align=left;fontSize=17;spacingLeft=4;spacingTop=-3;whiteSpace=wrap;strokeColor=#333333;mainText=;fillColor=none;fontFamily=Open Sans;movable=1;resizable=1;rotatable=1;deletable=1;editable=1;locked=0;connectable=1;" parent="1" vertex="1">
          <mxGeometry x="220" y="300" width="280" height="30" as="geometry" />
        </mxCell>
        <object label="&lt;div align=&quot;left&quot;&gt;Sheet %pagenumber%/%pagecount%&lt;/div&gt;" placeholders="1" id="h7L3MlKvrl_dhOmhB3lf-12">
          <mxCell style="strokeWidth=1;shadow=0;dashed=0;align=left;html=1;shape=mxgraph.mockup.text.textBox;fontColor=#666666;align=left;fontSize=17;spacingLeft=4;spacingTop=-3;whiteSpace=wrap;strokeColor=#333333;mainText=;fillColor=none;fontFamily=Open Sans;movable=1;resizable=1;rotatable=1;deletable=1;editable=1;locked=0;connectable=1;" parent="1" vertex="1">
            <mxGeometry x="60" y="300" width="160" height="30" as="geometry" />
          </mxCell>
        </object>
        <object label="Date: &lt;font style=&quot;font-size: 17px;&quot;&gt;%date{ddd mmm dd yyyy HH:MM:ss}%&lt;/font&gt;" placeholders="1" id="h7L3MlKvrl_dhOmhB3lf-13">
          <mxCell style="strokeWidth=1;shadow=0;dashed=0;align=center;html=1;shape=mxgraph.mockup.text.textBox;fontColor=#666666;align=left;fontSize=17;spacingLeft=4;spacingTop=-3;whiteSpace=wrap;strokeColor=#333333;mainText=;fillColor=none;fontFamily=Open Sans;movable=1;resizable=1;rotatable=1;deletable=1;editable=1;locked=0;connectable=1;" parent="1" vertex="1">
            <mxGeometry x="500" y="300" width="280" height="30" as="geometry" />
          </mxCell>
        </object>
        <object label="&lt;b&gt;Title: %page%&lt;/b&gt;" placeholders="1" id="h7L3MlKvrl_dhOmhB3lf-14">
          <mxCell style="strokeWidth=1;shadow=0;dashed=0;align=center;html=1;shape=mxgraph.mockup.text.textBox;fontColor=#666666;align=left;fontSize=17;spacingLeft=4;spacingTop=-3;whiteSpace=wrap;strokeColor=#333333;mainText=;fillColor=none;fontFamily=Open Sans;movable=1;resizable=1;rotatable=1;deletable=1;editable=1;locked=0;connectable=1;" parent="1" vertex="1">
            <mxGeometry x="60" y="240" width="720" height="30" as="geometry" />
          </mxCell>
        </object>
        <object label="Filename: %filename%" placeholders="1" id="h7L3MlKvrl_dhOmhB3lf-15">
          <mxCell style="strokeWidth=1;shadow=0;dashed=0;align=center;html=1;shape=mxgraph.mockup.text.textBox;fontColor=#666666;align=left;fontSize=17;spacingLeft=4;spacingTop=-3;whiteSpace=wrap;strokeColor=#333333;mainText=;fillColor=none;fontFamily=Open Sans;movable=1;resizable=1;rotatable=1;deletable=1;editable=1;locked=0;connectable=1;" parent="1" vertex="1">
            <mxGeometry x="60" y="270" width="440" height="30" as="geometry" />
          </mxCell>
        </object>
        <object label="&lt;div align=&quot;left&quot;&gt;%description%&lt;/div&gt;" placeholders="1" id="h7L3MlKvrl_dhOmhB3lf-16">
          <mxCell style="strokeWidth=1;shadow=0;dashed=0;html=1;shape=mxgraph.mockup.text.textBox;fontColor=#666666;align=left;verticalAlign=top;fontSize=12;spacingLeft=4;spacingTop=-3;whiteSpace=wrap;strokeColor=#333333;mainText=;fillColor=none;fontFamily=Open Sans;movable=1;resizable=1;rotatable=1;deletable=1;editable=1;locked=0;connectable=1;" parent="1" vertex="1">
            <mxGeometry x="60" y="200" width="720" height="40" as="geometry" />
          </mxCell>
        </object>
        <object label="&lt;b&gt;Rev: %rev%&lt;br&gt;&lt;/b&gt;" placeholders="1" id="EyKvBmyPNv_MzgSUc5b6-1">
          <mxCell style="strokeWidth=1;shadow=0;dashed=0;align=center;html=1;shape=mxgraph.mockup.text.textBox;fontColor=#666666;align=left;fontSize=17;spacingLeft=4;spacingTop=-3;whiteSpace=wrap;strokeColor=#333333;mainText=;fillColor=none;fontFamily=Open Sans;movable=1;resizable=1;rotatable=1;deletable=1;editable=1;locked=0;connectable=1;" parent="1" vertex="1">
            <mxGeometry x="500" y="270" width="280" height="30" as="geometry" />
          </mxCell>
        </object>
        <object label="Drawing Frame" id="2jkEU8j2_UPUL1MGRyPS-1">
          <mxCell style="locked=1;" parent="0" />
        </object>
        <mxCell id="2jkEU8j2_UPUL1MGRyPS-2" value="" style="rounded=0;whiteSpace=wrap;html=1;fillColor=none;strokeWidth=3;movable=1;resizable=1;rotatable=1;deletable=1;editable=1;locked=0;connectable=1;" parent="2jkEU8j2_UPUL1MGRyPS-1" vertex="1">
          <mxGeometry x="60" y="-240" width="720" height="570" as="geometry" />
        </mxCell>
        <object label="Document" id="NbdiYjX3MhI7OpqD2NvG-1">
          <mxCell parent="0" />
        </object>
        <mxCell id="hTzr3CFl4ioeJvV2ZkVr-21" value="" style="html=1;align=center;verticalAlign=top;rounded=1;absoluteArcSize=1;arcSize=10;dashed=0;whiteSpace=wrap;fillColor=#F0F0F0;fontFamily=Open Sans;" vertex="1" parent="NbdiYjX3MhI7OpqD2NvG-1">
          <mxGeometry x="90" y="-215" width="540" height="390" as="geometry" />
        </mxCell>
        <mxCell id="hTzr3CFl4ioeJvV2ZkVr-14" value="Reset Button Press" style="edgeStyle=orthogonalEdgeStyle;rounded=0;orthogonalLoop=1;jettySize=auto;html=1;exitX=1;exitY=0;exitDx=0;exitDy=0;entryX=0;entryY=0;entryDx=0;entryDy=0;curved=1;fontFamily=Open Sans;" edge="1" parent="NbdiYjX3MhI7OpqD2NvG-1" source="hTzr3CFl4ioeJvV2ZkVr-1" target="hTzr3CFl4ioeJvV2ZkVr-4">
          <mxGeometry relative="1" as="geometry">
            <Array as="points">
              <mxPoint x="351" y="-160" />
              <mxPoint x="519" y="-160" />
            </Array>
          </mxGeometry>
        </mxCell>
        <mxCell id="hTzr3CFl4ioeJvV2ZkVr-16" value="RST Toggled with&lt;br&gt;GPIO0 Low" style="edgeStyle=orthogonalEdgeStyle;rounded=0;orthogonalLoop=1;jettySize=auto;html=1;curved=1;entryX=0.5;entryY=0;entryDx=0;entryDy=0;fontFamily=Open Sans;" edge="1" parent="NbdiYjX3MhI7OpqD2NvG-1" source="hTzr3CFl4ioeJvV2ZkVr-21" target="hTzr3CFl4ioeJvV2ZkVr-2">
          <mxGeometry x="0.25" relative="1" as="geometry">
            <mxPoint x="600.0000000000005" y="-95" as="sourcePoint" />
            <Array as="points">
              <mxPoint x="720" y="-95" />
            </Array>
            <mxPoint as="offset" />
          </mxGeometry>
        </mxCell>
        <mxCell id="hTzr3CFl4ioeJvV2ZkVr-18" value="No Upload Required" style="edgeStyle=orthogonalEdgeStyle;rounded=0;orthogonalLoop=1;jettySize=auto;html=1;exitX=0;exitY=1;exitDx=0;exitDy=0;entryX=1;entryY=1;entryDx=0;entryDy=0;curved=1;fontFamily=Open Sans;" edge="1" parent="NbdiYjX3MhI7OpqD2NvG-1" source="hTzr3CFl4ioeJvV2ZkVr-1" target="hTzr3CFl4ioeJvV2ZkVr-5">
          <mxGeometry relative="1" as="geometry">
            <Array as="points">
              <mxPoint x="309" y="-70" />
              <mxPoint x="161" y="-70" />
            </Array>
          </mxGeometry>
        </mxCell>
        <mxCell id="hTzr3CFl4ioeJvV2ZkVr-25" value="High Water&lt;br&gt;Mark Reached" style="edgeStyle=orthogonalEdgeStyle;rounded=0;orthogonalLoop=1;jettySize=auto;html=1;exitX=0.5;exitY=1;exitDx=0;exitDy=0;entryX=0.5;entryY=0;entryDx=0;entryDy=0;fontFamily=Open Sans;" edge="1" parent="NbdiYjX3MhI7OpqD2NvG-1" source="hTzr3CFl4ioeJvV2ZkVr-1" target="hTzr3CFl4ioeJvV2ZkVr-6">
          <mxGeometry x="0.1" y="-30" relative="1" as="geometry">
            <mxPoint as="offset" />
          </mxGeometry>
        </mxCell>
        <mxCell id="hTzr3CFl4ioeJvV2ZkVr-29" value="Battery Critical" style="edgeStyle=orthogonalEdgeStyle;rounded=0;orthogonalLoop=1;jettySize=auto;html=1;exitX=0.5;exitY=1;exitDx=0;exitDy=0;curved=1;fontFamily=Open Sans;" edge="1" parent="NbdiYjX3MhI7OpqD2NvG-1" source="hTzr3CFl4ioeJvV2ZkVr-1" target="hTzr3CFl4ioeJvV2ZkVr-3">
          <mxGeometry x="-0.0159" y="40" relative="1" as="geometry">
            <Array as="points">
              <mxPoint x="330" y="20" />
            </Array>
            <mxPoint as="offset" />
          </mxGeometry>
        </mxCell>
        <mxCell id="hTzr3CFl4ioeJvV2ZkVr-1" value="Normal Mode" style="ellipse;shape=doubleEllipse;html=1;dashed=0;whiteSpace=wrap;aspect=fixed;fontFamily=Open Sans;fillColor=#CCCCCC;fontColor=#333333;strokeColor=#666666;" vertex="1" parent="NbdiYjX3MhI7OpqD2NvG-1">
          <mxGeometry x="300" y="-145" width="60" height="60" as="geometry" />
        </mxCell>
        <mxCell id="hTzr3CFl4ioeJvV2ZkVr-17" value="RST Toggled with&lt;br&gt;GPIO0 High" style="edgeStyle=orthogonalEdgeStyle;rounded=0;orthogonalLoop=1;jettySize=auto;html=1;exitX=0.5;exitY=1;exitDx=0;exitDy=0;elbow=vertical;curved=1;fontFamily=Open Sans;" edge="1" parent="NbdiYjX3MhI7OpqD2NvG-1" source="hTzr3CFl4ioeJvV2ZkVr-2" target="hTzr3CFl4ioeJvV2ZkVr-21">
          <mxGeometry x="-0.1429" y="-5" relative="1" as="geometry">
            <mxPoint x="600.0000000000005" y="55" as="targetPoint" />
            <Array as="points">
              <mxPoint x="720" y="55" />
            </Array>
            <mxPoint as="offset" />
          </mxGeometry>
        </mxCell>
        <mxCell id="hTzr3CFl4ioeJvV2ZkVr-2" value="Repro-gramming Mode" style="shape=ellipse;html=1;dashed=0;whiteSpace=wrap;aspect=fixed;perimeter=ellipsePerimeter;fontFamily=Open Sans;fillColor=#F0F0F0;fontColor=#333333;strokeColor=#666666;" vertex="1" parent="NbdiYjX3MhI7OpqD2NvG-1">
          <mxGeometry x="690" y="-55" width="60" height="60" as="geometry" />
        </mxCell>
        <mxCell id="hTzr3CFl4ioeJvV2ZkVr-3" value="Terminal Sleep" style="ellipse;html=1;shape=endState;fillColor=strokeColor;verticalAlign=top;labelPosition=center;verticalLabelPosition=bottom;align=center;fontFamily=Open Sans;" vertex="1" parent="NbdiYjX3MhI7OpqD2NvG-1">
          <mxGeometry x="540" y="5" width="30" height="30" as="geometry" />
        </mxCell>
        <mxCell id="hTzr3CFl4ioeJvV2ZkVr-15" value="Configuration Successful /&lt;br&gt;Restart Commanded /&lt;br&gt;Timeout" style="edgeStyle=orthogonalEdgeStyle;rounded=0;orthogonalLoop=1;jettySize=auto;html=1;exitX=0;exitY=1;exitDx=0;exitDy=0;entryX=1;entryY=1;entryDx=0;entryDy=0;curved=1;fontFamily=Open Sans;" edge="1" parent="NbdiYjX3MhI7OpqD2NvG-1" source="hTzr3CFl4ioeJvV2ZkVr-4" target="hTzr3CFl4ioeJvV2ZkVr-1">
          <mxGeometry relative="1" as="geometry">
            <Array as="points">
              <mxPoint x="519" y="-70" />
              <mxPoint x="351" y="-70" />
            </Array>
          </mxGeometry>
        </mxCell>
        <mxCell id="hTzr3CFl4ioeJvV2ZkVr-4" value="Configuration Mode" style="shape=ellipse;html=1;dashed=0;whiteSpace=wrap;aspect=fixed;perimeter=ellipsePerimeter;fontFamily=Open Sans;fillColor=#CCCCCC;fontColor=#333333;strokeColor=#666666;" vertex="1" parent="NbdiYjX3MhI7OpqD2NvG-1">
          <mxGeometry x="510" y="-145" width="60" height="60" as="geometry" />
        </mxCell>
        <mxCell id="hTzr3CFl4ioeJvV2ZkVr-10" value="Reset Button Press /&lt;br&gt;Sleep Timeout Expired" style="edgeStyle=orthogonalEdgeStyle;rounded=0;orthogonalLoop=1;jettySize=auto;html=1;curved=1;entryX=0;entryY=0;entryDx=0;entryDy=0;exitX=1;exitY=0;exitDx=0;exitDy=0;fontFamily=Open Sans;" edge="1" parent="NbdiYjX3MhI7OpqD2NvG-1" source="hTzr3CFl4ioeJvV2ZkVr-5" target="hTzr3CFl4ioeJvV2ZkVr-1">
          <mxGeometry x="-0.054" relative="1" as="geometry">
            <Array as="points">
              <mxPoint x="161" y="-160" />
              <mxPoint x="309" y="-160" />
            </Array>
            <mxPoint as="offset" />
          </mxGeometry>
        </mxCell>
        <mxCell id="hTzr3CFl4ioeJvV2ZkVr-5" value="Deep Sleep" style="shape=ellipse;html=1;dashed=0;whiteSpace=wrap;aspect=fixed;perimeter=ellipsePerimeter;fontFamily=Open Sans;fillColor=#CCCCCC;fontColor=#333333;strokeColor=#666666;" vertex="1" parent="NbdiYjX3MhI7OpqD2NvG-1">
          <mxGeometry x="110" y="-145" width="60" height="60" as="geometry" />
        </mxCell>
        <mxCell id="hTzr3CFl4ioeJvV2ZkVr-26" value="Update Available" style="edgeStyle=orthogonalEdgeStyle;rounded=0;orthogonalLoop=1;jettySize=auto;html=1;curved=1;fontFamily=Open Sans;" edge="1" parent="NbdiYjX3MhI7OpqD2NvG-1" source="hTzr3CFl4ioeJvV2ZkVr-6" target="hTzr3CFl4ioeJvV2ZkVr-7">
          <mxGeometry x="0.3636" relative="1" as="geometry">
            <mxPoint as="offset" />
          </mxGeometry>
        </mxCell>
        <mxCell id="hTzr3CFl4ioeJvV2ZkVr-27" value="No Update Available" style="edgeStyle=orthogonalEdgeStyle;rounded=0;orthogonalLoop=1;jettySize=auto;html=1;curved=1;fontFamily=Open Sans;" edge="1" parent="NbdiYjX3MhI7OpqD2NvG-1" source="hTzr3CFl4ioeJvV2ZkVr-6" target="hTzr3CFl4ioeJvV2ZkVr-5">
          <mxGeometry x="-0.4483" y="-25" relative="1" as="geometry">
            <mxPoint as="offset" />
          </mxGeometry>
        </mxCell>
        <mxCell id="hTzr3CFl4ioeJvV2ZkVr-6" value="Upload Mode" style="shape=ellipse;html=1;dashed=0;whiteSpace=wrap;aspect=fixed;perimeter=ellipsePerimeter;fontFamily=Open Sans;fillColor=#CCCCCC;fontColor=#333333;strokeColor=#666666;" vertex="1" parent="NbdiYjX3MhI7OpqD2NvG-1">
          <mxGeometry x="300" y="15" width="60" height="60" as="geometry" />
        </mxCell>
        <mxCell id="hTzr3CFl4ioeJvV2ZkVr-31" value="Download Finished" style="edgeStyle=orthogonalEdgeStyle;rounded=0;orthogonalLoop=1;jettySize=auto;html=1;entryX=0.5;entryY=1;entryDx=0;entryDy=0;curved=1;fontFamily=Open Sans;" edge="1" parent="NbdiYjX3MhI7OpqD2NvG-1" source="hTzr3CFl4ioeJvV2ZkVr-7" target="hTzr3CFl4ioeJvV2ZkVr-5">
          <mxGeometry x="-0.3043" y="-25" relative="1" as="geometry">
            <mxPoint as="offset" />
          </mxGeometry>
        </mxCell>
        <mxCell id="hTzr3CFl4ioeJvV2ZkVr-7" value="Download Mode" style="shape=ellipse;html=1;dashed=0;whiteSpace=wrap;aspect=fixed;perimeter=ellipsePerimeter;fontFamily=Open Sans;fillColor=#CCCCCC;fontColor=#333333;strokeColor=#666666;" vertex="1" parent="NbdiYjX3MhI7OpqD2NvG-1">
          <mxGeometry x="390" y="95" width="60" height="60" as="geometry" />
        </mxCell>
        <mxCell id="hTzr3CFl4ioeJvV2ZkVr-30" value="RST Toggled with GPIO0 High" style="rounded=0;orthogonalLoop=1;jettySize=auto;html=1;entryX=0.5;entryY=0;entryDx=0;entryDy=0;edgeStyle=orthogonalEdgeStyle;curved=1;fontFamily=Open Sans;" edge="1" parent="NbdiYjX3MhI7OpqD2NvG-1" source="hTzr3CFl4ioeJvV2ZkVr-21" target="hTzr3CFl4ioeJvV2ZkVr-1">
          <mxGeometry x="-0.2857" relative="1" as="geometry">
            <mxPoint x="350" y="-265" as="sourcePoint" />
            <Array as="points">
              <mxPoint x="350" y="-195" />
              <mxPoint x="350" y="-195" />
            </Array>
            <mxPoint as="offset" />
          </mxGeometry>
        </mxCell>
      </root>
    </mxGraphModel>
  </diagram>
</mxfile>
